<?xml version="1.0" encoding="UTF-8" standalone="no"?>
<!DOCTYPE svg PUBLIC "-//W3C//DTD SVG 1.1//EN"
 "http://www.w3.org/Graphics/SVG/1.1/DTD/svg11.dtd">
<!-- Generated by graphviz version 9.0.0 (0)
 -->
<!-- Title: snakemake_dag Pages: 1 -->
<svg width="714pt" height="404pt"
 viewBox="0.00 0.00 713.86 404.00" xmlns="http://www.w3.org/2000/svg" xmlns:xlink="http://www.w3.org/1999/xlink">
<g id="graph0" class="graph" transform="scale(1 1) rotate(0) translate(4 400)">
<title>snakemake_dag</title>
<polygon fill="white" stroke="none" points="-4,4 -4,-400 709.86,-400 709.86,4 -4,4"/>
<!-- 0 -->
<g id="node1" class="node">
<title>0</title>
<path fill="none" stroke="#5682d8" stroke-width="2" d="M404.36,-36C404.36,-36 338.86,-36 338.86,-36 332.86,-36 326.86,-30 326.86,-24 326.86,-24 326.86,-12 326.86,-12 326.86,-6 332.86,0 338.86,0 338.86,0 404.36,0 404.36,0 410.36,0 416.36,-6 416.36,-12 416.36,-12 416.36,-24 416.36,-24 416.36,-30 410.36,-36 404.36,-36"/>
<text text-anchor="middle" x="371.61" y="-14.12" font-family="sans" font-size="10.00">FINAL_TARGET</text>
</g>
<!-- 1 -->
<g id="node2" class="node">
<title>1</title>
<path fill="none" stroke="#56d882" stroke-width="2" d="M404.74,-108C404.74,-108 338.49,-108 338.49,-108 332.49,-108 326.49,-102 326.49,-96 326.49,-96 326.49,-84 326.49,-84 326.49,-78 332.49,-72 338.49,-72 338.49,-72 404.74,-72 404.74,-72 410.74,-72 416.74,-78 416.74,-84 416.74,-84 416.74,-96 416.74,-96 416.74,-102 410.74,-108 404.74,-108"/>
<text text-anchor="middle" x="371.61" y="-86.12" font-family="sans" font-size="10.00">render_bs4_book</text>
</g>
<!-- 1&#45;&gt;0 -->
<g id="edge1" class="edge">
<title>1&#45;&gt;0</title>
<path fill="none" stroke="grey" stroke-width="2" d="M371.61,-71.34C371.61,-64.75 371.61,-57.08 371.61,-49.67"/>
<polygon fill="grey" stroke="grey" stroke-width="2" points="375.11,-49.93 371.61,-39.93 368.11,-49.93 375.11,-49.93"/>
</g>
<!-- 2 -->
<g id="node3" class="node">
<title>2</title>
<path fill="none" stroke="#afd856" stroke-width="2" d="M119.24,-180C119.24,-180 43.99,-180 43.99,-180 37.99,-180 31.99,-174 31.99,-168 31.99,-168 31.99,-156 31.99,-156 31.99,-150 37.99,-144 43.99,-144 43.99,-144 119.24,-144 119.24,-144 125.24,-144 131.24,-150 131.24,-156 131.24,-156 131.24,-168 131.24,-168 131.24,-174 125.24,-180 119.24,-180"/>
<text text-anchor="middle" x="81.61" y="-158.12" font-family="sans" font-size="10.00">explore_graphically</text>
</g>
<!-- 2&#45;&gt;1 -->
<g id="edge6" class="edge">
<title>2&#45;&gt;1</title>
<path fill="none" stroke="grey" stroke-width="2" d="M132.13,-148.81C182.5,-136.65 259.82,-117.98 312.9,-105.17"/>
<polygon fill="grey" stroke="grey" stroke-width="2" points="313.66,-108.59 322.56,-102.84 312.02,-101.78 313.66,-108.59"/>
</g>
<!-- 3 -->
<g id="node4" class="node">
<title>3</title>
<path fill="none" stroke="#56d8a9" stroke-width="2" d="M257.49,-324C257.49,-324 183.74,-324 183.74,-324 177.74,-324 171.74,-318 171.74,-312 171.74,-312 171.74,-300 171.74,-300 171.74,-294 177.74,-288 183.74,-288 183.74,-288 257.49,-288 257.49,-288 263.49,-288 269.49,-294 269.49,-300 269.49,-300 269.49,-312 269.49,-312 269.49,-318 263.49,-324 257.49,-324"/>
<text text-anchor="middle" x="220.61" y="-302.12" font-family="sans" font-size="10.00">final_metadata_file</text>
</g>
<!-- 3&#45;&gt;2 -->
<g id="edge10" class="edge">
<title>3&#45;&gt;2</title>
<path fill="none" stroke="grey" stroke-width="2" d="M170.92,-299.72C114.2,-292.54 26.63,-277.58 6.61,-252 -3.25,-239.4 -0.74,-230.21 6.61,-216 12.38,-204.86 21.69,-195.56 31.81,-188.03"/>
<polygon fill="grey" stroke="grey" stroke-width="2" points="33.69,-190.98 40.03,-182.5 29.78,-185.17 33.69,-190.98"/>
</g>
<!-- 5 -->
<g id="node6" class="node">
<title>5</title>
<path fill="none" stroke="#80d856" stroke-width="2" d="M135.36,-252C135.36,-252 27.86,-252 27.86,-252 21.86,-252 15.86,-246 15.86,-240 15.86,-240 15.86,-228 15.86,-228 15.86,-222 21.86,-216 27.86,-216 27.86,-216 135.36,-216 135.36,-216 141.36,-216 147.36,-222 147.36,-228 147.36,-228 147.36,-240 147.36,-240 147.36,-246 141.36,-252 135.36,-252"/>
<text text-anchor="middle" x="81.61" y="-230.12" font-family="sans" font-size="10.00">explore_sample_read_size</text>
</g>
<!-- 3&#45;&gt;5 -->
<g id="edge12" class="edge">
<title>3&#45;&gt;5</title>
<path fill="none" stroke="grey" stroke-width="2" d="M185.18,-287.15C167.94,-278.47 146.99,-267.92 128.45,-258.59"/>
<polygon fill="grey" stroke="grey" stroke-width="2" points="130.19,-255.55 119.69,-254.17 127.04,-261.8 130.19,-255.55"/>
</g>
<!-- 9 -->
<g id="node10" class="node">
<title>9</title>
<path fill="none" stroke="#d88556" stroke-width="2" d="M263.86,-252C263.86,-252 177.36,-252 177.36,-252 171.36,-252 165.36,-246 165.36,-240 165.36,-240 165.36,-228 165.36,-228 165.36,-222 171.36,-216 177.36,-216 177.36,-216 263.86,-216 263.86,-216 269.86,-216 275.86,-222 275.86,-228 275.86,-228 275.86,-240 275.86,-240 275.86,-246 269.86,-252 263.86,-252"/>
<text text-anchor="middle" x="220.61" y="-230.12" font-family="sans" font-size="10.00">map_sampling_points</text>
</g>
<!-- 3&#45;&gt;9 -->
<g id="edge13" class="edge">
<title>3&#45;&gt;9</title>
<path fill="none" stroke="grey" stroke-width="2" d="M220.61,-287.34C220.61,-280.75 220.61,-273.08 220.61,-265.67"/>
<polygon fill="grey" stroke="grey" stroke-width="2" points="224.11,-265.93 220.61,-255.93 217.11,-265.93 224.11,-265.93"/>
</g>
<!-- 10 -->
<g id="node11" class="node">
<title>10</title>
<path fill="none" stroke="#d8ac56" stroke-width="2" d="M410.86,-252C410.86,-252 306.36,-252 306.36,-252 300.36,-252 294.36,-246 294.36,-240 294.36,-240 294.36,-228 294.36,-228 294.36,-222 300.36,-216 306.36,-216 306.36,-216 410.86,-216 410.86,-216 416.86,-216 422.86,-222 422.86,-228 422.86,-228 422.86,-240 422.86,-240 422.86,-246 416.86,-252 410.86,-252"/>
<text text-anchor="middle" x="358.61" y="-230.12" font-family="sans" font-size="10.00">paired_end_mapping_files</text>
</g>
<!-- 3&#45;&gt;10 -->
<g id="edge14" class="edge">
<title>3&#45;&gt;10</title>
<path fill="none" stroke="grey" stroke-width="2" d="M255.79,-287.15C272.91,-278.47 293.71,-267.92 312.11,-258.59"/>
<polygon fill="grey" stroke="grey" stroke-width="2" points="313.46,-261.83 320.8,-254.18 310.3,-255.58 313.46,-261.83"/>
</g>
<!-- 11 -->
<g id="node12" class="node">
<title>11</title>
<path fill="none" stroke="#59d856" stroke-width="2" d="M556.49,-252C556.49,-252 452.74,-252 452.74,-252 446.74,-252 440.74,-246 440.74,-240 440.74,-240 440.74,-228 440.74,-228 440.74,-222 446.74,-216 452.74,-216 452.74,-216 556.49,-216 556.49,-216 562.49,-216 568.49,-222 568.49,-228 568.49,-228 568.49,-240 568.49,-240 568.49,-246 562.49,-252 556.49,-252"/>
<text text-anchor="middle" x="504.61" y="-230.12" font-family="sans" font-size="10.00">single_end_mapping_files</text>
</g>
<!-- 3&#45;&gt;11 -->
<g id="edge15" class="edge">
<title>3&#45;&gt;11</title>
<path fill="none" stroke="grey" stroke-width="2" d="M270.41,-292.73C313.82,-282.03 377.48,-266.34 427.48,-254.01"/>
<polygon fill="grey" stroke="grey" stroke-width="2" points="428.06,-257.47 436.94,-251.68 426.39,-250.68 428.06,-257.47"/>
</g>
<!-- 4 -->
<g id="node5" class="node">
<title>4</title>
<path fill="none" stroke="#56d8d8" stroke-width="2" d="M267.24,-396C267.24,-396 173.99,-396 173.99,-396 167.99,-396 161.99,-390 161.99,-384 161.99,-384 161.99,-372 161.99,-372 161.99,-366 167.99,-360 173.99,-360 173.99,-360 267.24,-360 267.24,-360 273.24,-360 279.24,-366 279.24,-372 279.24,-372 279.24,-384 279.24,-384 279.24,-390 273.24,-396 267.24,-396"/>
<text text-anchor="middle" x="220.61" y="-374.12" font-family="sans" font-size="10.00">process_tidy_metadata</text>
</g>
<!-- 4&#45;&gt;3 -->
<g id="edge11" class="edge">
<title>4&#45;&gt;3</title>
<path fill="none" stroke="grey" stroke-width="2" d="M220.61,-359.34C220.61,-352.75 220.61,-345.08 220.61,-337.67"/>
<polygon fill="grey" stroke="grey" stroke-width="2" points="224.11,-337.93 220.61,-327.93 217.11,-337.93 224.11,-337.93"/>
</g>
<!-- 5&#45;&gt;2 -->
<g id="edge9" class="edge">
<title>5&#45;&gt;2</title>
<path fill="none" stroke="grey" stroke-width="2" d="M81.61,-215.34C81.61,-208.75 81.61,-201.08 81.61,-193.67"/>
<polygon fill="grey" stroke="grey" stroke-width="2" points="85.11,-193.93 81.61,-183.93 78.11,-193.93 85.11,-193.93"/>
</g>
<!-- 6 -->
<g id="node7" class="node">
<title>6</title>
<path fill="none" stroke="#56a9d8" stroke-width="2" d="M483.74,-180C483.74,-180 411.49,-180 411.49,-180 405.49,-180 399.49,-174 399.49,-168 399.49,-168 399.49,-156 399.49,-156 399.49,-150 405.49,-144 411.49,-144 411.49,-144 483.74,-144 483.74,-144 489.74,-144 495.74,-150 495.74,-156 495.74,-156 495.74,-168 495.74,-168 495.74,-174 489.74,-180 483.74,-180"/>
<text text-anchor="middle" x="447.61" y="-158.12" font-family="sans" font-size="10.00">snakemake_report</text>
</g>
<!-- 6&#45;&gt;1 -->
<g id="edge2" class="edge">
<title>6&#45;&gt;1</title>
<path fill="none" stroke="grey" stroke-width="2" d="M428.44,-143.34C419.95,-135.52 409.79,-126.16 400.42,-117.53"/>
<polygon fill="grey" stroke="grey" stroke-width="2" points="403,-115.15 393.28,-110.95 398.26,-120.3 403,-115.15"/>
</g>
<!-- 7 -->
<g id="node8" class="node">
<title>7</title>
<path fill="none" stroke="#d85656" stroke-width="2" d="M577.24,-180C577.24,-180 525.99,-180 525.99,-180 519.99,-180 513.99,-174 513.99,-168 513.99,-168 513.99,-156 513.99,-156 513.99,-150 519.99,-144 525.99,-144 525.99,-144 577.24,-144 577.24,-144 583.24,-144 589.24,-150 589.24,-156 589.24,-156 589.24,-168 589.24,-168 589.24,-174 583.24,-180 577.24,-180"/>
<text text-anchor="middle" x="551.61" y="-158.12" font-family="sans" font-size="10.00">generate_tree</text>
</g>
<!-- 7&#45;&gt;1 -->
<g id="edge8" class="edge">
<title>7&#45;&gt;1</title>
<path fill="none" stroke="grey" stroke-width="2" d="M513,-145.98C488.61,-136.5 456.66,-124.07 429.3,-113.43"/>
<polygon fill="grey" stroke="grey" stroke-width="2" points="430.9,-110.3 420.31,-109.94 428.36,-116.83 430.9,-110.3"/>
</g>
<!-- 8 -->
<g id="node9" class="node">
<title>8</title>
<path fill="none" stroke="#d6d856" stroke-width="2" d="M693.86,-180C693.86,-180 619.36,-180 619.36,-180 613.36,-180 607.36,-174 607.36,-168 607.36,-168 607.36,-156 607.36,-156 607.36,-150 613.36,-144 619.36,-144 619.36,-144 693.86,-144 693.86,-144 699.86,-144 705.86,-150 705.86,-156 705.86,-156 705.86,-168 705.86,-168 705.86,-174 699.86,-180 693.86,-180"/>
<text text-anchor="middle" x="656.61" y="-158.12" font-family="sans" font-size="10.00">generate_rulegraph</text>
</g>
<!-- 8&#45;&gt;1 -->
<g id="edge5" class="edge">
<title>8&#45;&gt;1</title>
<path fill="none" stroke="grey" stroke-width="2" d="M606.68,-146.17C603.95,-145.42 601.25,-144.69 598.61,-144 541.67,-129.02 476.14,-113.95 430.17,-103.73"/>
<polygon fill="grey" stroke="grey" stroke-width="2" points="430.93,-100.31 420.41,-101.57 429.41,-107.15 430.93,-100.31"/>
</g>
<!-- 9&#45;&gt;1 -->
<g id="edge3" class="edge">
<title>9&#45;&gt;1</title>
<path fill="none" stroke="grey" stroke-width="2" d="M239.74,-215.02C265.95,-190.37 313.21,-145.92 343.47,-117.47"/>
<polygon fill="grey" stroke="grey" stroke-width="2" points="345.55,-120.31 350.44,-110.91 340.76,-115.21 345.55,-120.31"/>
</g>
<!-- 10&#45;&gt;1 -->
<g id="edge4" class="edge">
<title>10&#45;&gt;1</title>
<path fill="none" stroke="grey" stroke-width="2" d="M356.95,-215.18C355.62,-197.15 354.43,-168.52 357.61,-144 358.58,-136.57 360.27,-128.69 362.16,-121.35"/>
<polygon fill="grey" stroke="grey" stroke-width="2" points="365.5,-122.41 364.83,-111.84 358.76,-120.52 365.5,-122.41"/>
</g>
<!-- 11&#45;&gt;1 -->
<g id="edge7" class="edge">
<title>11&#45;&gt;1</title>
<path fill="none" stroke="grey" stroke-width="2" d="M439.91,-215.08C421.57,-207.09 403.2,-195.79 390.61,-180 377.52,-163.58 372.9,-140.21 371.49,-121.54"/>
<polygon fill="grey" stroke="grey" stroke-width="2" points="374.99,-121.53 371.07,-111.69 368,-121.82 374.99,-121.53"/>
</g>
</g>
</svg>
