<?xml version="1.0" encoding="UTF-8" standalone="no"?>
<!DOCTYPE svg PUBLIC "-//W3C//DTD SVG 1.1//EN"
 "http://www.w3.org/Graphics/SVG/1.1/DTD/svg11.dtd">
<!-- Generated by graphviz version 9.0.0 (0)
 -->
<!-- Title: snakemake_dag Pages: 1 -->
<svg width="714pt" height="332pt"
 viewBox="0.00 0.00 713.86 332.00" xmlns="http://www.w3.org/2000/svg" xmlns:xlink="http://www.w3.org/1999/xlink">
<g id="graph0" class="graph" transform="scale(1 1) rotate(0) translate(4 328)">
<title>snakemake_dag</title>
<polygon fill="white" stroke="none" points="-4,4 -4,-328 709.86,-328 709.86,4 -4,4"/>
<!-- 0 -->
<g id="node1" class="node">
<title>0</title>
<path fill="none" stroke="#d8b456" stroke-width="2" d="M386.61,-36C386.61,-36 356.61,-36 356.61,-36 350.61,-36 344.61,-30 344.61,-24 344.61,-24 344.61,-12 344.61,-12 344.61,-6 350.61,0 356.61,0 356.61,0 386.61,0 386.61,0 392.61,0 398.61,-6 398.61,-12 398.61,-12 398.61,-24 398.61,-24 398.61,-30 392.61,-36 386.61,-36"/>
<text text-anchor="middle" x="371.61" y="-14.12" font-family="sans" font-size="10.00">all</text>
</g>
<!-- 1 -->
<g id="node2" class="node">
<title>1</title>
<path fill="none" stroke="#56d89a" stroke-width="2" d="M119.24,-108C119.24,-108 43.99,-108 43.99,-108 37.99,-108 31.99,-102 31.99,-96 31.99,-96 31.99,-84 31.99,-84 31.99,-78 37.99,-72 43.99,-72 43.99,-72 119.24,-72 119.24,-72 125.24,-72 131.24,-78 131.24,-84 131.24,-84 131.24,-96 131.24,-96 131.24,-102 125.24,-108 119.24,-108"/>
<text text-anchor="middle" x="81.61" y="-86.12" font-family="sans" font-size="10.00">explore_graphically</text>
</g>
<!-- 1&#45;&gt;0 -->
<g id="edge5" class="edge">
<title>1&#45;&gt;0</title>
<path fill="none" stroke="grey" stroke-width="2" d="M132.13,-76.81C188.83,-63.12 279.66,-41.19 331.65,-28.65"/>
<polygon fill="grey" stroke="grey" stroke-width="2" points="332.14,-32.13 341.04,-26.38 330.49,-25.32 332.14,-32.13"/>
</g>
<!-- 2 -->
<g id="node3" class="node">
<title>2</title>
<path fill="none" stroke="#9fd856" stroke-width="2" d="M257.49,-252C257.49,-252 183.74,-252 183.74,-252 177.74,-252 171.74,-246 171.74,-240 171.74,-240 171.74,-228 171.74,-228 171.74,-222 177.74,-216 183.74,-216 183.74,-216 257.49,-216 257.49,-216 263.49,-216 269.49,-222 269.49,-228 269.49,-228 269.49,-240 269.49,-240 269.49,-246 263.49,-252 257.49,-252"/>
<text text-anchor="middle" x="220.61" y="-230.12" font-family="sans" font-size="10.00">final_metadata_file</text>
</g>
<!-- 2&#45;&gt;1 -->
<g id="edge9" class="edge">
<title>2&#45;&gt;1</title>
<path fill="none" stroke="grey" stroke-width="2" d="M170.92,-227.72C114.2,-220.54 26.63,-205.58 6.61,-180 -3.25,-167.4 -0.74,-158.21 6.61,-144 12.38,-132.86 21.69,-123.56 31.81,-116.03"/>
<polygon fill="grey" stroke="grey" stroke-width="2" points="33.69,-118.98 40.03,-110.5 29.78,-113.17 33.69,-118.98"/>
</g>
<!-- 4 -->
<g id="node5" class="node">
<title>4</title>
<path fill="none" stroke="#d88556" stroke-width="2" d="M135.36,-180C135.36,-180 27.86,-180 27.86,-180 21.86,-180 15.86,-174 15.86,-168 15.86,-168 15.86,-156 15.86,-156 15.86,-150 21.86,-144 27.86,-144 27.86,-144 135.36,-144 135.36,-144 141.36,-144 147.36,-150 147.36,-156 147.36,-156 147.36,-168 147.36,-168 147.36,-174 141.36,-180 135.36,-180"/>
<text text-anchor="middle" x="81.61" y="-158.12" font-family="sans" font-size="10.00">explore_sample_read_size</text>
</g>
<!-- 2&#45;&gt;4 -->
<g id="edge11" class="edge">
<title>2&#45;&gt;4</title>
<path fill="none" stroke="grey" stroke-width="2" d="M185.18,-215.15C167.94,-206.47 146.99,-195.92 128.45,-186.59"/>
<polygon fill="grey" stroke="grey" stroke-width="2" points="130.19,-183.55 119.69,-182.17 127.04,-189.8 130.19,-183.55"/>
</g>
<!-- 8 -->
<g id="node9" class="node">
<title>8</title>
<path fill="none" stroke="#56d8c9" stroke-width="2" d="M263.86,-180C263.86,-180 177.36,-180 177.36,-180 171.36,-180 165.36,-174 165.36,-168 165.36,-168 165.36,-156 165.36,-156 165.36,-150 171.36,-144 177.36,-144 177.36,-144 263.86,-144 263.86,-144 269.86,-144 275.86,-150 275.86,-156 275.86,-156 275.86,-168 275.86,-168 275.86,-174 269.86,-180 263.86,-180"/>
<text text-anchor="middle" x="220.61" y="-158.12" font-family="sans" font-size="10.00">map_sampling_points</text>
</g>
<!-- 2&#45;&gt;8 -->
<g id="edge12" class="edge">
<title>2&#45;&gt;8</title>
<path fill="none" stroke="grey" stroke-width="2" d="M220.61,-215.34C220.61,-208.75 220.61,-201.08 220.61,-193.67"/>
<polygon fill="grey" stroke="grey" stroke-width="2" points="224.11,-193.93 220.61,-183.93 217.11,-193.93 224.11,-193.93"/>
</g>
<!-- 9 -->
<g id="node10" class="node">
<title>9</title>
<path fill="none" stroke="#70d856" stroke-width="2" d="M410.86,-180C410.86,-180 306.36,-180 306.36,-180 300.36,-180 294.36,-174 294.36,-168 294.36,-168 294.36,-156 294.36,-156 294.36,-150 300.36,-144 306.36,-144 306.36,-144 410.86,-144 410.86,-144 416.86,-144 422.86,-150 422.86,-156 422.86,-156 422.86,-168 422.86,-168 422.86,-174 416.86,-180 410.86,-180"/>
<text text-anchor="middle" x="358.61" y="-158.12" font-family="sans" font-size="10.00">paired_end_mapping_files</text>
</g>
<!-- 2&#45;&gt;9 -->
<g id="edge13" class="edge">
<title>2&#45;&gt;9</title>
<path fill="none" stroke="grey" stroke-width="2" d="M255.79,-215.15C272.91,-206.47 293.71,-195.92 312.11,-186.59"/>
<polygon fill="grey" stroke="grey" stroke-width="2" points="313.46,-189.83 320.8,-182.18 310.3,-183.58 313.46,-189.83"/>
</g>
<!-- 10 -->
<g id="node11" class="node">
<title>10</title>
<path fill="none" stroke="#56d86b" stroke-width="2" d="M556.49,-180C556.49,-180 452.74,-180 452.74,-180 446.74,-180 440.74,-174 440.74,-168 440.74,-168 440.74,-156 440.74,-156 440.74,-150 446.74,-144 452.74,-144 452.74,-144 556.49,-144 556.49,-144 562.49,-144 568.49,-150 568.49,-156 568.49,-156 568.49,-168 568.49,-168 568.49,-174 562.49,-180 556.49,-180"/>
<text text-anchor="middle" x="504.61" y="-158.12" font-family="sans" font-size="10.00">single_end_mapping_files</text>
</g>
<!-- 2&#45;&gt;10 -->
<g id="edge14" class="edge">
<title>2&#45;&gt;10</title>
<path fill="none" stroke="grey" stroke-width="2" d="M270.41,-220.73C313.82,-210.03 377.48,-194.34 427.48,-182.01"/>
<polygon fill="grey" stroke="grey" stroke-width="2" points="428.06,-185.47 436.94,-179.68 426.39,-178.68 428.06,-185.47"/>
</g>
<!-- 3 -->
<g id="node4" class="node">
<title>3</title>
<path fill="none" stroke="#56b1d8" stroke-width="2" d="M267.24,-324C267.24,-324 173.99,-324 173.99,-324 167.99,-324 161.99,-318 161.99,-312 161.99,-312 161.99,-300 161.99,-300 161.99,-294 167.99,-288 173.99,-288 173.99,-288 267.24,-288 267.24,-288 273.24,-288 279.24,-294 279.24,-300 279.24,-300 279.24,-312 279.24,-312 279.24,-318 273.24,-324 267.24,-324"/>
<text text-anchor="middle" x="220.61" y="-302.12" font-family="sans" font-size="10.00">process_tidy_metadata</text>
</g>
<!-- 3&#45;&gt;2 -->
<g id="edge10" class="edge">
<title>3&#45;&gt;2</title>
<path fill="none" stroke="grey" stroke-width="2" d="M220.61,-287.34C220.61,-280.75 220.61,-273.08 220.61,-265.67"/>
<polygon fill="grey" stroke="grey" stroke-width="2" points="224.11,-265.93 220.61,-255.93 217.11,-265.93 224.11,-265.93"/>
</g>
<!-- 4&#45;&gt;1 -->
<g id="edge8" class="edge">
<title>4&#45;&gt;1</title>
<path fill="none" stroke="grey" stroke-width="2" d="M81.61,-143.34C81.61,-136.75 81.61,-129.08 81.61,-121.67"/>
<polygon fill="grey" stroke="grey" stroke-width="2" points="85.11,-121.93 81.61,-111.93 78.11,-121.93 85.11,-121.93"/>
</g>
<!-- 5 -->
<g id="node6" class="node">
<title>5</title>
<path fill="none" stroke="#ced856" stroke-width="2" d="M483.74,-108C483.74,-108 411.49,-108 411.49,-108 405.49,-108 399.49,-102 399.49,-96 399.49,-96 399.49,-84 399.49,-84 399.49,-78 405.49,-72 411.49,-72 411.49,-72 483.74,-72 483.74,-72 489.74,-72 495.74,-78 495.74,-84 495.74,-84 495.74,-96 495.74,-96 495.74,-102 489.74,-108 483.74,-108"/>
<text text-anchor="middle" x="447.61" y="-86.12" font-family="sans" font-size="10.00">snakemake_report</text>
</g>
<!-- 5&#45;&gt;0 -->
<g id="edge3" class="edge">
<title>5&#45;&gt;0</title>
<path fill="none" stroke="grey" stroke-width="2" d="M428.44,-71.34C419.95,-63.52 409.79,-54.16 400.42,-45.53"/>
<polygon fill="grey" stroke="grey" stroke-width="2" points="403,-43.15 393.28,-38.95 398.26,-48.3 403,-43.15"/>
</g>
<!-- 6 -->
<g id="node7" class="node">
<title>6</title>
<path fill="none" stroke="#d85656" stroke-width="2" d="M577.24,-108C577.24,-108 525.99,-108 525.99,-108 519.99,-108 513.99,-102 513.99,-96 513.99,-96 513.99,-84 513.99,-84 513.99,-78 519.99,-72 525.99,-72 525.99,-72 577.24,-72 577.24,-72 583.24,-72 589.24,-78 589.24,-84 589.24,-84 589.24,-96 589.24,-96 589.24,-102 583.24,-108 577.24,-108"/>
<text text-anchor="middle" x="551.61" y="-86.12" font-family="sans" font-size="10.00">generate_tree</text>
</g>
<!-- 6&#45;&gt;0 -->
<g id="edge1" class="edge">
<title>6&#45;&gt;0</title>
<path fill="none" stroke="grey" stroke-width="2" d="M513,-73.98C483.04,-62.33 441.65,-46.24 411.4,-34.47"/>
<polygon fill="grey" stroke="grey" stroke-width="2" points="413,-31.34 402.41,-30.98 410.46,-37.86 413,-31.34"/>
</g>
<!-- 7 -->
<g id="node8" class="node">
<title>7</title>
<path fill="none" stroke="#5682d8" stroke-width="2" d="M693.86,-108C693.86,-108 619.36,-108 619.36,-108 613.36,-108 607.36,-102 607.36,-96 607.36,-96 607.36,-84 607.36,-84 607.36,-78 613.36,-72 619.36,-72 619.36,-72 693.86,-72 693.86,-72 699.86,-72 705.86,-78 705.86,-84 705.86,-84 705.86,-96 705.86,-96 705.86,-102 699.86,-108 693.86,-108"/>
<text text-anchor="middle" x="656.61" y="-86.12" font-family="sans" font-size="10.00">generate_rulegraph</text>
</g>
<!-- 7&#45;&gt;0 -->
<g id="edge7" class="edge">
<title>7&#45;&gt;0</title>
<path fill="none" stroke="grey" stroke-width="2" d="M606.68,-74.17C603.95,-73.42 601.25,-72.69 598.61,-72 533.6,-54.9 457.39,-37.68 411.88,-27.69"/>
<polygon fill="grey" stroke="grey" stroke-width="2" points="412.81,-24.31 402.3,-25.6 411.32,-31.15 412.81,-24.31"/>
</g>
<!-- 8&#45;&gt;0 -->
<g id="edge6" class="edge">
<title>8&#45;&gt;0</title>
<path fill="none" stroke="grey" stroke-width="2" d="M239.74,-143.02C265.95,-118.37 313.21,-73.92 343.47,-45.47"/>
<polygon fill="grey" stroke="grey" stroke-width="2" points="345.55,-48.31 350.44,-38.91 340.76,-43.21 345.55,-48.31"/>
</g>
<!-- 9&#45;&gt;0 -->
<g id="edge2" class="edge">
<title>9&#45;&gt;0</title>
<path fill="none" stroke="grey" stroke-width="2" d="M356.95,-143.18C355.62,-125.15 354.43,-96.52 357.61,-72 358.58,-64.57 360.27,-56.69 362.16,-49.35"/>
<polygon fill="grey" stroke="grey" stroke-width="2" points="365.5,-50.41 364.83,-39.84 358.76,-48.52 365.5,-50.41"/>
</g>
<!-- 10&#45;&gt;0 -->
<g id="edge4" class="edge">
<title>10&#45;&gt;0</title>
<path fill="none" stroke="grey" stroke-width="2" d="M439.91,-143.08C421.57,-135.09 403.2,-123.79 390.61,-108 377.52,-91.58 372.9,-68.21 371.49,-49.54"/>
<polygon fill="grey" stroke="grey" stroke-width="2" points="374.99,-49.53 371.07,-39.69 368,-49.82 374.99,-49.53"/>
</g>
</g>
</svg>
